<svg width="286" height="140" viewBox="0 0 286 140" fill="none" xmlns="http://www.w3.org/2000/svg">
<path d="M0.800001 140V-9.53674e-06H62C77.2 -9.53674e-06 90.5333 2.93333 102 8.8C113.467 14.6667 122.4 22.8 128.8 33.2C135.2 43.6 138.4 55.8667 138.4 70C138.4 84 135.2 96.2667 128.8 106.8C122.4 117.2 113.467 125.333 102 131.2C90.5333 137.067 77.2 140 62 140H0.800001ZM26.8 118H60.8C71.3333 118 80.4 116 88 112C95.7333 108 101.667 102.4 105.8 95.2C110.067 88 112.2 79.6 112.2 70C112.2 60.2667 110.067 51.8667 105.8 44.8C101.667 37.6 95.7333 32 88 28C80.4 24 71.3333 22 60.8 22H26.8V118ZM166.034 140V-9.53674e-06H223.634C236.034 -9.53674e-06 246.634 1.99999 255.434 6C264.368 9.99999 271.234 15.7333 276.034 23.2C280.834 30.6667 283.234 39.5333 283.234 49.8C283.234 60.0667 280.834 68.9333 276.034 76.4C271.234 83.7333 264.368 89.4 255.434 93.4C246.634 97.2667 236.034 99.2 223.634 99.2H180.434L192.034 87.4V140H166.034ZM257.634 140L222.234 89.2H250.034L285.634 140H257.634ZM192.034 90.2L180.434 77.8H222.434C233.901 77.8 242.501 75.3333 248.234 70.4C254.101 65.4667 257.034 58.6 257.034 49.8C257.034 40.8667 254.101 34 248.234 29.2C242.501 24.4 233.901 22 222.434 22H180.434L192.034 9.19999V90.2Z" fill="#6599FF"/>
</svg>
